<!DOCTYPE svg PUBLIC "-//W3C//DTD SVG 20010904//EN" "http://www.w3.org/TR/2001/REC-SVG-20010904/DTD/svg10.dtd">
<svg version="1.0" xmlns="http://www.w3.org/2000/svg" width="1265px" height="1090px" viewBox="0 0 12650 10900" preserveAspectRatio="xMidYMid meet">
<g id="layer101" fill="#ffffff" stroke="none">
 <path d="M6529 6996 c-106 -66 -150 -102 -229 -193 -40 -45 -51 -52 -105 -62 -79 -16 -104 -29 -111 -60 -12 -52 -15 -60 -45 -98 -17 -21 -42 -62 -55 -91 -12 -28 -42 -78 -64 -110 -38 -51 -41 -61 -36 -99 3 -24 20 -71 37 -105 27 -53 32 -74 32 -133 0 -88 -13 -115 -56 -115 -19 0 -55 -14 -89 -36 -60 -36 -150 -59 -178 -44 -8 5 -24 22 -35 39 -23 35 -28 36 -157 21 -101 -12 -117 -18 -217 -83 -41 -26 -84 -49 -95 -51 -128 -23 -145 -29 -231 -80 -101 -62 -183 -86 -299 -89 l-71 -2 -15 122 -14 122 -41 7 c-96 15 -128 48 -146 152 -19 107 -20 108 -82 65 -48 -33 -95 -35 -154 -4 -33 16 -60 21 -120 21 l-78 0 -138 -116 c-76 -63 -154 -138 -173 -165 -20 -27 -40 -49 -46 -49 -5 0 -35 -25 -67 -55 -32 -30 -66 -55 -77 -55 -32 0 -90 -46 -117 -93 -15 -24 -38 -52 -52 -61 -14 -9 -85 -75 -159 -146 -119 -116 -137 -130 -168 -130 -38 0 -90 -33 -145 -91 -33 -35 -142 -263 -168 -352 -21 -72 -19 -125 11 -203 19 -52 23 -73 15 -90 -5 -12 -46 -43 -90 -70 -116 -69 -140 -97 -156 -182 -13 -69 -43 -141 -72 -174 -25 -28 -9 -48 39 -48 38 0 47 5 93 53 l52 53 28 -54 c44 -83 103 -136 181 -162 37 -13 78 -29 93 -36 36 -19 68 -17 120 6 24 11 49 20 56 20 8 0 30 -20 50 -45 26 -32 47 -46 72 -51 25 -5 43 -18 64 -47 43 -59 90 -89 149 -95 42 -4 53 -9 64 -31 23 -44 47 -59 156 -96 58 -20 137 -54 177 -76 76 -41 141 -67 235 -93 75 -21 88 -43 48 -81 -17 -16 -30 -39 -30 -52 0 -34 26 -92 44 -99 23 -9 144 14 185 36 47 23 91 101 91 158 0 68 57 102 106 63 20 -15 41 -21 80 -21 l54 0 0 -52 c0 -90 3 -93 91 -118 l79 -23 48 40 c42 36 48 45 52 90 3 32 14 60 30 80 14 17 30 38 35 46 7 11 41 21 112 31 172 26 274 69 339 144 l31 36 114 -21 114 -21 59 58 c55 54 59 61 49 83 -19 40 -71 94 -119 122 -27 16 -44 33 -42 41 2 8 44 47 93 87 97 78 149 144 166 213 23 91 71 93 134 6 28 -40 43 -51 77 -58 39 -9 43 -12 42 -39 -2 -33 -20 -79 -56 -138 -21 -35 -21 -40 -8 -64 8 -14 22 -30 30 -36 25 -15 161 39 248 99 117 81 147 95 222 101 66 6 69 5 109 -27 37 -30 43 -32 66 -20 29 15 42 78 28 137 -7 32 -16 42 -53 60 l-45 21 85 86 85 86 39 -12 c21 -7 50 -25 65 -40 14 -15 30 -28 35 -28 5 0 43 22 85 48 90 57 133 75 223 92 37 6 73 19 81 29 9 9 27 54 41 101 31 98 35 105 98 149 49 33 70 62 82 116 23 99 26 105 66 125 31 16 40 26 40 46 0 26 40 74 62 74 26 0 59 -32 83 -80 13 -26 41 -61 62 -77 51 -40 128 -83 147 -83 21 0 49 32 85 99 39 73 76 111 110 111 62 0 85 42 97 173 5 66 9 77 22 72 36 -14 102 -17 116 -6 16 14 24 6 56 -59 25 -52 40 -65 130 -119 l65 -38 135 8 c164 11 173 13 203 45 13 14 41 32 63 39 44 16 39 19 107 -75 30 -41 39 -46 116 -68 l83 -24 61 27 61 26 66 -17 66 -17 129 62 c71 34 140 72 154 84 13 12 34 45 47 74 27 60 24 58 169 113 230 87 255 100 255 126 0 34 -21 82 -63 142 -19 28 -47 86 -62 129 -16 43 -37 103 -48 133 -14 39 -39 74 -84 121 l-63 66 0 77 c0 85 -17 138 -49 155 -13 7 -45 9 -83 5 -51 -5 -73 -2 -117 15 -29 12 -61 19 -71 16 -30 -10 -130 -122 -130 -147 -1 -30 -17 -50 -60 -77 -44 -27 -66 -26 -126 1 -42 19 -67 22 -179 23 -124 0 -132 -1 -176 -27 -60 -37 -99 -35 -185 6 -79 38 -88 48 -164 190 -63 117 -80 136 -119 136 -20 0 -61 22 -126 65 -52 36 -104 65 -115 65 -11 0 -51 -15 -88 -34 -37 -18 -88 -41 -114 -51 -44 -16 -49 -16 -73 -1 -16 10 -29 32 -36 62 -19 74 -42 82 -327 114 -96 10 -181 25 -189 31 -20 17 -40 58 -48 99 -6 31 -3 38 25 58 43 32 39 72 -9 86 -19 5 -49 25 -68 44 -33 32 -36 33 -106 31 -40 -1 -121 2 -182 6 -64 4 -148 3 -200 -3 -82 -9 -129 -7 -211 13 -14 3 -55 -17 -125 -59z m444 -2 l309 -2 31 -30 c18 -16 41 -32 51 -36 15 -5 17 -9 8 -18 -7 -7 -12 -41 -12 -78 0 -58 4 -73 31 -113 17 -26 34 -49 39 -52 4 -3 75 -12 156 -20 201 -21 297 -35 311 -47 7 -6 18 -29 24 -51 6 -22 23 -53 39 -69 42 -41 83 -38 202 18 67 31 106 44 122 40 13 -3 52 -25 87 -49 79 -55 122 -77 147 -77 14 0 35 -31 81 -114 67 -125 99 -159 186 -202 87 -42 149 -44 228 -5 56 27 74 31 148 31 64 0 100 -6 154 -26 108 -39 110 -39 162 -9 67 38 91 63 99 98 3 17 29 54 56 83 l49 52 42 -19 c29 -13 65 -19 115 -19 69 0 73 -1 82 -26 6 -14 10 -62 10 -107 l0 -83 61 -59 c71 -70 79 -84 125 -218 42 -118 56 -149 96 -199 53 -65 43 -74 -182 -159 -74 -28 -145 -57 -157 -64 -11 -8 -28 -36 -37 -63 -24 -72 -57 -96 -226 -167 -61 -26 -67 -27 -136 -16 -64 11 -76 10 -123 -9 -62 -24 -107 -25 -161 -4 -33 13 -48 29 -81 85 -34 60 -44 69 -68 69 -36 0 -95 -25 -146 -61 -35 -25 -54 -30 -160 -40 l-120 -12 -75 44 c-72 43 -77 48 -120 131 l-45 86 -45 -24 c-39 -20 -51 -22 -80 -14 -51 15 -85 12 -110 -8 -22 -18 -22 -18 -5 -68 16 -44 16 -54 4 -99 -13 -45 -19 -51 -54 -63 -52 -17 -96 -61 -135 -134 -18 -33 -38 -62 -46 -65 -20 -8 -98 41 -133 84 -17 21 -40 57 -51 80 l-20 43 -89 0 -89 0 -11 -45 c-17 -67 -42 -79 -143 -71 -44 4 -91 12 -104 19 -13 7 -57 50 -96 96 -53 61 -90 93 -133 117 -70 37 -90 66 -100 142 -13 101 -42 146 -135 208 -37 24 -96 69 -129 99 -75 67 -100 80 -176 94 -96 18 -199 14 -242 -9 -21 -11 -45 -20 -55 -20 -53 0 -180 207 -194 317 -3 32 -19 83 -35 113 -45 88 -45 100 -5 150 20 25 45 70 57 100 11 30 34 72 50 93 17 21 39 58 50 82 23 52 36 60 104 70 46 7 57 14 143 101 102 103 258 217 282 207 8 -4 154 -8 323 -9z m-2901 -978 c45 -19 142 -23 162 -6 13 10 16 7 21 -17 25 -111 72 -164 167 -187 24 -5 27 -12 33 -64 9 -82 33 -175 50 -191 12 -12 33 -11 151 9 158 25 158 25 281 98 75 44 104 55 158 62 56 7 80 17 153 63 99 62 130 73 227 82 l70 6 24 -35 c23 -35 26 -36 85 -36 78 0 131 15 181 51 32 23 47 28 71 23 24 -4 37 0 62 21 l31 26 22 -43 c30 -60 82 -122 124 -148 39 -24 73 -21 139 12 35 18 51 20 134 14 52 -4 105 -11 118 -16 12 -5 55 -38 93 -74 39 -35 91 -77 116 -93 105 -64 110 -72 155 -249 14 -56 42 -90 96 -114 57 -24 184 -149 184 -179 0 -27 42 -46 124 -56 73 -9 106 -20 106 -38 0 -7 -7 -36 -15 -65 -14 -44 -23 -56 -75 -93 -59 -41 -88 -85 -104 -154 -19 -86 -34 -99 -136 -120 -71 -15 -124 -38 -191 -82 l-36 -24 -36 21 c-20 12 -61 24 -91 27 l-55 6 -101 -100 c-94 -92 -101 -103 -98 -134 3 -31 6 -34 42 -40 45 -7 66 -30 66 -71 0 -35 -13 -35 -52 -3 -28 23 -36 25 -92 19 -102 -10 -129 -21 -244 -98 -102 -68 -205 -116 -219 -102 -4 3 5 27 20 53 30 56 61 158 54 177 -3 8 -28 21 -54 30 -33 11 -65 33 -99 67 -27 28 -61 57 -76 65 -58 30 -122 -27 -142 -126 -8 -38 -65 -99 -181 -195 -58 -47 -105 -89 -105 -94 0 -12 62 -67 106 -94 23 -14 51 -39 62 -55 l21 -29 -40 -39 -40 -39 -109 23 -109 23 -63 -64 c-57 -58 -72 -67 -144 -90 -91 -29 -216 -48 -256 -40 -23 4 -30 0 -45 -28 -10 -18 -28 -42 -39 -54 -15 -14 -24 -39 -29 -78 -6 -50 -12 -61 -42 -84 -33 -26 -35 -26 -81 -12 l-47 15 -9 71 -9 71 -59 4 c-46 3 -62 9 -74 26 -20 28 -80 30 -133 3 -51 -27 -58 -37 -63 -104 -4 -52 -9 -63 -46 -100 -39 -39 -45 -42 -99 -42 -52 0 -58 2 -61 21 -2 15 8 31 32 51 l35 28 -22 40 c-28 49 -59 67 -170 99 -48 14 -118 43 -155 65 -37 22 -101 51 -142 64 -147 48 -156 53 -185 113 -28 57 -34 60 -84 43 -40 -14 -78 8 -130 77 -26 35 -46 50 -70 55 -20 4 -52 25 -80 53 -53 52 -80 57 -141 26 -22 -11 -45 -20 -52 -20 -6 0 -54 16 -105 36 -107 41 -148 79 -203 186 -19 38 -39 68 -45 68 -5 0 -31 -21 -57 -47 l-49 -48 21 59 c11 33 20 73 20 89 0 38 53 91 133 131 61 30 103 72 113 112 4 13 -1 46 -11 72 -38 106 -40 120 -27 179 13 62 112 276 162 348 39 57 83 85 134 85 36 0 45 7 141 108 57 59 131 130 165 157 33 28 74 71 90 97 25 41 36 49 77 59 35 9 62 26 101 63 29 28 65 63 80 77 15 14 50 50 77 80 81 88 253 222 294 229 42 7 91 -1 143 -24z"/>
 </g>

</svg>